<?xml version="1.0" encoding="utf-8"?>
<!-- Generator: Adobe Illustrator 21.0.2, SVG Export Plug-In . SVG Version: 6.00 Build 0)  -->
<svg version="1.1" id="Layer_1" xmlns="http://www.w3.org/2000/svg" xmlns:xlink="http://www.w3.org/1999/xlink" x="0px" y="0px"
	 viewBox="0 0 155 155" style="enable-background:new 0 0 155 155;" xml:space="preserve">
<style type="text/css">
	.st0{fill:none;stroke:#000000;stroke-width:3;stroke-miterlimit:10;}
</style>
<title>bulb</title>
<circle class="st0" cx="77.5" cy="77.5" r="75"/>
<g transform="translate(0,-952.36218)">
	<path d="M31.6,986.5c-0.7,0.1-1.2,0.7-1.2,1.4c0,0.3,0.2,0.6,0.4,0.8l18.8,18.8c-0.5,2.1-0.8,4.3-0.8,6.6v31.5h-1.3
		c-5.1,0-9.2,4.1-9.2,9.2s4.1,9.2,9.2,9.2h14.4c0,7.2,5.7,14.4,13.1,14.4s13.1-7.2,13.1-14.4h17.1c0.2,0,0.5,0,0.7,0l14.1,14
		c0.5,0.5,1.4,0.5,1.9,0s0.5-1.3,0-1.8l-13-13c3.2-1.4,5.5-4.7,5.5-8.4c0-5.1-4.1-9.2-9.2-9.2h-1.3v-31.5
		c0-15.2-12.3-27.5-27.6-27.5c-11.9,0-22.1,7.5-25.9,18.1l-17.8-17.8C32.4,986.6,32,986.5,31.6,986.5L31.6,986.5z M76.4,989.2
		c13.8,0,24.9,11.1,24.9,24.9v31.5h-9.9l-38.8-38.8C55.7,996.5,65.1,989.2,76.4,989.2z M51.8,1009.7l35.8,35.8H51.4V1014
		C51.4,1012.6,51.6,1011.2,51.8,1009.7z M47.5,1048.2h42.8l13.1,13.1H47.5c-3.7,0-6.6-2.9-6.6-6.6
		C40.9,1051.1,43.8,1048.2,47.5,1048.2L47.5,1048.2z M94,1048.2h11.2c3.7,0,6.6,2.9,6.6,6.6c0,3.1-2.1,5.6-4.9,6.4L94,1048.2
		L94,1048.2z M64.6,1063.9h21c0,5.8-4.9,11.8-10.5,11.8C69.4,1075.7,64.6,1069.7,64.6,1063.9z"/>
</g>
</svg>
