<?xml version="1.0" encoding="utf-8"?>
<!-- Generator: Adobe Illustrator 21.0.2, SVG Export Plug-In . SVG Version: 6.00 Build 0)  -->
<svg version="1.1" id="Layer_1" xmlns="http://www.w3.org/2000/svg" xmlns:xlink="http://www.w3.org/1999/xlink" x="0px" y="0px"
	 viewBox="0 0 155 155" style="enable-background:new 0 0 155 155;" xml:space="preserve">
<style type="text/css">
	.st0{fill:none;stroke:#000000;stroke-width:3;stroke-miterlimit:10;}
	.st1{fill:none;stroke:#000000;stroke-width:3;stroke-linecap:round;stroke-linejoin:round;}
	.st2{fill:none;stroke:#FFFFFF;stroke-width:3;stroke-linecap:round;stroke-linejoin:round;}
</style>
<title>bulb</title>
<circle class="st0" cx="77.5" cy="77.5" r="75"/>
<path class="st1" d="M97.9,96.2c0.1-2.7,0.7-5.4,1.5-8c1.4-4.5,3.5-8.6,6.3-12.3c3.1-4.1,5.3-9,6.3-14.1c0.8-4.3,0.9-8.7,0.1-12.9
	c-0.9-5.5-3.2-10.7-6.6-15.1c-7.8-10.2-20.4-15.4-33.1-13.5c-5,0.7-9.9,2.6-14.1,5.4c-2.8,1.8-5.2,4-7.4,6.4
	c-3,3.5-5.3,7.5-6.7,11.8c-1.3,4-1.9,8.2-1.8,12.3c0.3,7.5,3,14.7,7.6,20.6c3.3,4.6,5.6,9.8,6.7,15.4c0.4,2.6,0.7,5.3,0.8,7.9
	c0.1,2.8,2.4,5,5.2,4.9c0.1,0,0.1,0,0.2,0c9,0,18,0,27,0c2.5,0,4.7,1.8,5.1,4.3c0.4,2.5-1.2,4.8-3.6,5.5c-0.6,0.2-1.2,0.2-1.8,0.2
	c-7.3,0-14.7,0-22,0c-2-0.1-3.8,1-4.6,2.9c-0.8,1.7-0.6,3.7,0.6,5.2c1,1.3,2.6,2,4.2,1.9c5.7,0,11.4,0,17.1,0c2.8-0.1,5.1,2.2,5.2,5
	c0,0.3,0,0.7-0.1,1c-0.5,2.4-2.7,4-5.1,4c-5.1,0-10.1,0-15.2,0"/>
<line class="st2" x1="59.8" y1="74.5" x2="95.2" y2="39.1"/>
<line class="st2" x1="95.2" y1="74.5" x2="59.8" y2="39.1"/>
</svg>
