<?xml version="1.0" encoding="utf-8"?>
<!-- Generator: Adobe Illustrator 21.0.2, SVG Export Plug-In . SVG Version: 6.00 Build 0)  -->
<svg version="1.1" id="Layer_1" xmlns="http://www.w3.org/2000/svg" xmlns:xlink="http://www.w3.org/1999/xlink" x="0px" y="0px"
	 viewBox="0 0 155 155" style="enable-background:new 0 0 155 155;" xml:space="preserve">
<style type="text/css">
	.st0{fill:none;stroke:#000000;stroke-width:3;stroke-miterlimit:10;}
	.st1{fill:none;stroke:#000000;stroke-width:3;stroke-linecap:round;stroke-miterlimit:10;}
</style>
<title>dawn</title>
<ellipse transform="matrix(6.383568e-02 -0.998 0.998 6.383568e-02 -4.7853 149.8895)" class="st0" cx="77.5" cy="77.5" rx="75" ry="75"/>
<g id="dawn">
	<path class="st1" d="M101.6,77.6c-0.2-13.7-11.4-24.7-25.1-24.5S51.8,64.5,52,78.2c0.1,7.1,3.2,13.8,8.5,18.4l33.1-0.4
		C98.8,91.4,101.7,84.7,101.6,77.6z"/>
	<line class="st1" x1="93.6" y1="96.2" x2="60.5" y2="96.7"/>
	<line class="st1" x1="27.8" y1="96.7" x2="127.2" y2="96.7"/>
	<line class="st1" x1="43.5" y1="47" x2="53.5" y2="57"/>
	<line class="st1" x1="100.8" y1="56.2" x2="110.8" y2="46.2"/>
	<line class="st1" x1="77.5" y1="47" x2="77.5" y2="32.8"/>
	<line class="st1" x1="110.2" y1="81.1" x2="124.4" y2="81.1"/>
	<line class="st1" x1="29.2" y1="79.6" x2="43.4" y2="79.6"/>
	<line class="st1" x1="39.1" y1="109.5" x2="115.9" y2="109.5"/>
	<line class="st1" x1="56.2" y1="122.2" x2="98.8" y2="122.2"/>
</g>
</svg>
