<?xml version="1.0" encoding="utf-8"?>
<!-- Generator: Adobe Illustrator 21.0.2, SVG Export Plug-In . SVG Version: 6.00 Build 0)  -->
<svg version="1.1" id="Layer_1" xmlns="http://www.w3.org/2000/svg" xmlns:xlink="http://www.w3.org/1999/xlink" x="0px" y="0px"
	 viewBox="0 0 155 155" style="enable-background:new 0 0 155 155;" xml:space="preserve">
<style type="text/css">
	.st0{fill:none;stroke:#000000;stroke-width:3;stroke-miterlimit:10;}
	.st1{fill:none;stroke:#000000;stroke-width:3;stroke-linecap:round;stroke-linejoin:round;}
</style>
<title>noise</title>
<circle class="st0" cx="77.5" cy="77.5" r="75"/>
<line class="st1" x1="111.5" y1="89.5" x2="135.5" y2="65.5"/>
<line class="st1" x1="135.5" y1="89.5" x2="111.5" y2="65.5"/>
<path class="st0" d="M94.1,77.3c0,16.2,0,32.3,0,48.5c0,0.7,0,1.5-0.1,2.2c-0.4,3.5-3.2,5.5-6.6,4.4c-1.7-0.5-3.3-1.4-4.7-2.4
	c-12-8.9-24-17.8-36-26.7c-0.6-0.4-1.2-0.6-1.9-0.6c-3.5-0.1-7,0.1-10.6-0.1C27.9,102.2,23.1,97,23,90.8c-0.1-8.7-0.1-17.4,0-26.2
	c0-6.6,5.3-11.9,11.9-12.1c3.2-0.1,6.5,0,9.7-0.1c0.8,0,1.5-0.3,2.1-0.7c12-8.9,24-17.9,36-26.8c1.7-1.4,3.7-2.3,5.9-2.7
	c2.5-0.4,4.9,1.2,5.4,3.7c0,0.2,0,0.3,0.1,0.5c0.1,0.7,0.1,1.3,0.1,2C94.1,44.8,94.1,61,94.1,77.3z"/>
</svg>
