<?xml version="1.0" encoding="utf-8"?>
<!-- Generator: Adobe Illustrator 21.0.2, SVG Export Plug-In . SVG Version: 6.00 Build 0)  -->
<svg version="1.1" id="Layer_1" xmlns="http://www.w3.org/2000/svg" xmlns:xlink="http://www.w3.org/1999/xlink" x="0px" y="0px"
	 viewBox="0 0 155 155" style="enable-background:new 0 0 155 155;" xml:space="preserve">
<style type="text/css">
	.st0{fill:none;stroke:#000000;stroke-width:3;stroke-miterlimit:10;}
	.st1{fill:none;stroke:#000000;stroke-width:3;stroke-linecap:round;stroke-miterlimit:10;}
</style>
<title>vibration</title>
<circle class="st0" cx="77.5" cy="77.5" r="75"/>
<circle class="st0" cx="77.2" cy="77.5" r="42.2"/>
<line class="st1" x1="77.2" y1="77.5" x2="100" y2="77.5"/>
<line class="st1" x1="77.2" y1="77.5" x2="77.2" y2="49"/>
<path class="st1" d="M24.8,58.2L20.4,63c-1,1.1-1,2.9,0,4l2.8,3c0.9,1,0.9,2.5,0,3.5l-3,3.2c-0.9,1-0.9,2.6,0,3.6l2.6,2.8
	c0.8,0.9,0.8,2.3,0,3.2l-2,2.2c-1,1.1-1,2.7,0,3.8l4,4.3"/>
<path class="st1" d="M130.2,58.2l4.4,4.8c1,1.1,1,2.9,0,4l-2.8,3c-0.9,1-0.9,2.5,0,3.5l3,3.2c0.9,1,0.9,2.6,0,3.6l-2.6,2.8
	c-0.8,0.9-0.8,2.3,0,3.2l2,2.2c1,1.1,1,2.7,0,3.8l-4,4.3"/>
</svg>
